<svg xmlns="http://www.w3.org/2000/svg" width="50" height="30.03" viewBox="0 0 50 30.03">
  <metadata><?xpacket begin="﻿" id="W5M0MpCehiHzreSzNTczkc9d"?>
<x:xmpmeta xmlns:x="adobe:ns:meta/" x:xmptk="Adobe XMP Core 5.6-c140 79.160451, 2017/05/06-01:08:21        ">
   <rdf:RDF xmlns:rdf="http://www.w3.org/1999/02/22-rdf-syntax-ns#">
      <rdf:Description rdf:about=""/>
   </rdf:RDF>
</x:xmpmeta>
                                                                                                    
                                                                                                    
                                                                                                    
                                                                                                    
                                                                                                    
                                                                                                    
                                                                                                    
                                                                                                    
                                                                                                    
                                                                                                    
                                                                                                    
                                                                                                    
                                                                                                    
                                                                                                    
                                                                                                    
                                                                                                    
                                                                                                    
                                                                                                    
                                                                                                    
                                                                                                    
                           
<?xpacket end="w"?></metadata>
<defs>
    <style>
      .cls-1 {
        fill: #fff;
        fill-rule: evenodd;
      }
    </style>
  </defs>
  <path id="icon-vkontakte-en" class="cls-1" d="M3053.73,1805.1a3.559,3.559,0,0,0-.17-0.34,26.468,26.468,0,0,0-4.97-6.06l-0.05-.05-0.03-.03-0.02-.03h-0.03c-1.11-1.11-1.81-1.86-2.11-2.24a2.179,2.179,0,0,1-.36-2.22,21.007,21.007,0,0,1,2.34-3.59c0.71-.97,1.28-1.74,1.69-2.33q4.5-6.3,3.91-8.05l-0.16-.27a1.4,1.4,0,0,0-.81-0.45,3.83,3.83,0,0,0-1.66-.07l-7.5.05a0.937,0.937,0,0,0-.52.02c-0.22.05-.34,0.08-0.34,0.08l-0.13.07-0.1.08a1.119,1.119,0,0,0-.29.29,1.813,1.813,0,0,0-.26.48,45.2,45.2,0,0,1-2.78,6.16q-0.96,1.7-1.77,2.94a14.388,14.388,0,0,1-1.36,1.84,9.161,9.161,0,0,1-.99.94,0.892,0.892,0,0,1-.67.3,4.034,4.034,0,0,1-.44-0.11,1.68,1.68,0,0,1-.59-0.67,3.016,3.016,0,0,1-.3-1.07c-0.05-.42-0.08-0.79-0.09-1.1s-0.01-.75.01-1.32,0.03-.95.03-1.15c0-.69.01-1.45,0.04-2.26s0.04-1.46.06-1.93,0.03-.98.03-1.51a6.626,6.626,0,0,0-.09-1.24,3.92,3.92,0,0,0-.28-0.88,1.514,1.514,0,0,0-.53-0.66,3.205,3.205,0,0,0-.87-0.37,17.272,17.272,0,0,0-3.52-.35c-3.22-.04-5.3.18-6.22,0.66a3.608,3.608,0,0,0-.99.82c-0.31.4-.35,0.62-0.13,0.65a3.183,3.183,0,0,1,2.22,1.18l0.15,0.33a5.467,5.467,0,0,1,.37,1.26,12.952,12.952,0,0,1,.23,2,21.544,21.544,0,0,1,0,3.42c-0.09.95-.17,1.69-0.25,2.22a4.265,4.265,0,0,1-.35,1.29,4.52,4.52,0,0,1-.31.6,0.608,0.608,0,0,1-.13.14,1.888,1.888,0,0,1-.7.13,1.566,1.566,0,0,1-.89-0.38,6.956,6.956,0,0,1-1.08-1.05,15.093,15.093,0,0,1-1.26-1.88c-0.47-.8-0.95-1.75-1.46-2.85l-0.41-.79c-0.26-.51-0.62-1.26-1.07-2.23s-0.85-1.93-1.2-2.84a1.844,1.844,0,0,0-.62-0.87l-0.13-.09a1.914,1.914,0,0,0-.42-0.23,2.977,2.977,0,0,0-.6-0.18l-7.13.06a1.742,1.742,0,0,0-1.48.52l-0.11.16a0.955,0.955,0,0,0-.08.44,2.15,2.15,0,0,0,.16.74c1.04,2.57,2.17,5.06,3.4,7.45s2.28,4.32,3.18,5.78,1.83,2.84,2.76,4.13,1.56,2.13,1.86,2.49,0.55,0.64.72,0.83l0.65,0.65a15.449,15.449,0,0,0,1.84,1.58,31.959,31.959,0,0,0,2.68,1.81,14.486,14.486,0,0,0,3.42,1.45,11.459,11.459,0,0,0,3.8.45h2.99a2.063,2.063,0,0,0,1.38-.6l0.11-.14a1.893,1.893,0,0,0,.19-0.51,2.965,2.965,0,0,0,.09-0.75,9.9,9.9,0,0,1,.17-2.12,5.62,5.62,0,0,1,.45-1.43,3.306,3.306,0,0,1,.55-0.8,2.067,2.067,0,0,1,.45-0.4,0.969,0.969,0,0,1,.21-0.1,1.619,1.619,0,0,1,1.47.43,9.192,9.192,0,0,1,1.59,1.59c0.49,0.63,1.08,1.33,1.78,2.12a12.32,12.32,0,0,0,1.82,1.75l0.52,0.33a6.155,6.155,0,0,0,1.35.6,2.836,2.836,0,0,0,1.46.14l6.66-.11a2.98,2.98,0,0,0,1.54-.34,1.312,1.312,0,0,0,.65-0.76,2.219,2.219,0,0,0,.01-0.93A3.462,3.462,0,0,0,3053.73,1805.1Z" transform="translate(-3004 -1778)"/>
</svg>
