<svg xmlns="http://www.w3.org/2000/svg" width="50" height="42" viewBox="0 0 50 42">
  <metadata><?xpacket begin="﻿" id="W5M0MpCehiHzreSzNTczkc9d"?>
<x:xmpmeta xmlns:x="adobe:ns:meta/" x:xmptk="Adobe XMP Core 5.6-c140 79.160451, 2017/05/06-01:08:21        ">
   <rdf:RDF xmlns:rdf="http://www.w3.org/1999/02/22-rdf-syntax-ns#">
      <rdf:Description rdf:about=""/>
   </rdf:RDF>
</x:xmpmeta>
                                                                                                    
                                                                                                    
                                                                                                    
                                                                                                    
                                                                                                    
                                                                                                    
                                                                                                    
                                                                                                    
                                                                                                    
                                                                                                    
                                                                                                    
                                                                                                    
                                                                                                    
                                                                                                    
                                                                                                    
                                                                                                    
                                                                                                    
                                                                                                    
                                                                                                    
                                                                                                    
                           
<?xpacket end="w"?></metadata>
<defs>
    <style>
      .cls-1 {
        fill: #fff;
        fill-rule: evenodd;
      }
    </style>
  </defs>
  <path id="Twitter" class="cls-1" d="M2104.62,1772.78a20.334,20.334,0,0,1-6.52,2.57,10.079,10.079,0,0,0-7.48-3.35,10.435,10.435,0,0,0-10.26,10.6,11.356,11.356,0,0,0,.26,2.42,28.835,28.835,0,0,1-21.14-11.08,10.813,10.813,0,0,0-1.38,5.33,10.672,10.672,0,0,0,4.56,8.82,9.885,9.885,0,0,1-4.65-1.33v0.14a10.546,10.546,0,0,0,8.23,10.4,10.057,10.057,0,0,1-2.7.37,10.292,10.292,0,0,1-1.94-.19,10.32,10.32,0,0,0,9.58,7.36,20.09,20.09,0,0,1-12.73,4.54,21.939,21.939,0,0,1-2.45-.14,28.411,28.411,0,0,0,15.72,4.76c18.87,0,29.19-16.16,29.19-30.18l-0.04-1.37a21.089,21.089,0,0,0,5.13-5.48,20.154,20.154,0,0,1-5.89,1.67A10.587,10.587,0,0,0,2104.62,1772.78Z" transform="translate(-2056 -1772)"/>
</svg>
