<svg xmlns="http://www.w3.org/2000/svg" width="128.88" height="128" viewBox="0 0 128.88 128">
  <metadata><?xpacket begin="﻿" id="W5M0MpCehiHzreSzNTczkc9d"?>
<x:xmpmeta xmlns:x="adobe:ns:meta/" x:xmptk="Adobe XMP Core 5.6-c140 79.160451, 2017/05/06-01:08:21        ">
   <rdf:RDF xmlns:rdf="http://www.w3.org/1999/02/22-rdf-syntax-ns#">
      <rdf:Description rdf:about=""/>
   </rdf:RDF>
</x:xmpmeta>
                                                                                                    
                                                                                                    
                                                                                                    
                                                                                                    
                                                                                                    
                                                                                                    
                                                                                                    
                                                                                                    
                                                                                                    
                                                                                                    
                                                                                                    
                                                                                                    
                                                                                                    
                                                                                                    
                                                                                                    
                                                                                                    
                                                                                                    
                                                                                                    
                                                                                                    
                                                                                                    
                           
<?xpacket end="w"?></metadata>
<defs>
    <style>
      .cls-1 {
        fill: #fff;
        fill-rule: evenodd;
      }
    </style>
  </defs>
  <path id="icon-instagram" class="cls-1" d="M1978.31,1994h128.88v128H1978.31V1994Zm64.42,24.65c12.9,0,14.43.05,19.53,0.28a26.722,26.722,0,0,1,8.97,1.65,15.911,15.911,0,0,1,9.17,9.11,26.25,26.25,0,0,1,1.67,8.91c0.23,5.07.28,6.58,0.28,19.4s-0.05,14.33-.28,19.4a26.25,26.25,0,0,1-1.67,8.91,15.911,15.911,0,0,1-9.17,9.11,26.722,26.722,0,0,1-8.97,1.65c-5.1.23-6.63,0.28-19.53,0.28s-14.44-.05-19.53-0.28a26.739,26.739,0,0,1-8.98-1.65,15.911,15.911,0,0,1-9.17-9.11,26.506,26.506,0,0,1-1.67-8.91c-0.23-5.07-.28-6.58-0.28-19.4s0.05-14.33.28-19.4a26.506,26.506,0,0,1,1.67-8.91,15.911,15.911,0,0,1,9.17-9.11,26.739,26.739,0,0,1,8.98-1.65c5.09-.23,6.62-0.28,19.53-0.28m0-8.65c-13.13,0-14.78.06-19.93,0.29a35.456,35.456,0,0,0-11.73,2.23,24.684,24.684,0,0,0-14.14,14.04,35.234,35.234,0,0,0-2.25,11.65c-0.23,5.12-.29,6.75-0.29,19.79s0.06,14.67.29,19.79a35.234,35.234,0,0,0,2.25,11.65,24.684,24.684,0,0,0,14.14,14.04,35.456,35.456,0,0,0,11.73,2.23c5.15,0.23,6.8.29,19.93,0.29s14.77-.06,19.92-0.29a35.576,35.576,0,0,0,11.74-2.23,23.837,23.837,0,0,0,8.56-5.54,23.5,23.5,0,0,0,5.57-8.5,34.98,34.98,0,0,0,2.25-11.65c0.23-5.12.29-6.75,0.29-19.79s-0.06-14.67-.29-19.79a34.98,34.98,0,0,0-2.25-11.65,23.414,23.414,0,0,0-5.57-8.5,23.837,23.837,0,0,0-8.56-5.54,35.576,35.576,0,0,0-11.74-2.23c-5.15-.23-6.8-0.29-19.92-0.29h0Zm0,23.35a24.651,24.651,0,1,0,24.82,24.65A24.736,24.736,0,0,0,2042.73,2033.35Zm0,40.65a16,16,0,1,1,16.11-16A16.06,16.06,0,0,1,2042.73,2074Zm31.6-41.62a5.8,5.8,0,1,1-5.8-5.76A5.783,5.783,0,0,1,2074.33,2032.38Z" transform="translate(-1978.31 -1994)"/>
</svg>
