<svg xmlns="http://www.w3.org/2000/svg" width="128.87" height="128" viewBox="0 0 128.87 128">
  <metadata><?xpacket begin="﻿" id="W5M0MpCehiHzreSzNTczkc9d"?>
<x:xmpmeta xmlns:x="adobe:ns:meta/" x:xmptk="Adobe XMP Core 5.6-c140 79.160451, 2017/05/06-01:08:21        ">
   <rdf:RDF xmlns:rdf="http://www.w3.org/1999/02/22-rdf-syntax-ns#">
      <rdf:Description rdf:about=""/>
   </rdf:RDF>
</x:xmpmeta>
                                                                                                    
                                                                                                    
                                                                                                    
                                                                                                    
                                                                                                    
                                                                                                    
                                                                                                    
                                                                                                    
                                                                                                    
                                                                                                    
                                                                                                    
                                                                                                    
                                                                                                    
                                                                                                    
                                                                                                    
                                                                                                    
                                                                                                    
                                                                                                    
                                                                                                    
                                                                                                    
                           
<?xpacket end="w"?></metadata>
<defs>
    <style>
      .cls-1 {
        fill: #fff;
        fill-rule: evenodd;
      }
    </style>
  </defs>
  <path id="icon-twitter" class="cls-1" d="M2228.94,1994h128.87v128H2228.94V1994Zm104.12,33.24a32.789,32.789,0,0,1-10.5,4.12,16.309,16.309,0,0,0-12.06-5.36,16.755,16.755,0,0,0-16.53,16.97,17.564,17.564,0,0,0,.43,3.86,46.541,46.541,0,0,1-34.07-17.73,17.3,17.3,0,0,0,5.12,22.65,16.2,16.2,0,0,1-7.49-2.13v0.21a16.891,16.891,0,0,0,13.26,16.65,16.486,16.486,0,0,1-4.35.59,16.1,16.1,0,0,1-3.12-.31,16.627,16.627,0,0,0,15.44,11.79,32.619,32.619,0,0,1-20.52,7.26,34.343,34.343,0,0,1-3.95-.23,45.95,45.95,0,0,0,25.34,7.62c30.39,0,47.01-25.86,47.01-48.28l-0.05-2.2a33.657,33.657,0,0,0,8.26-8.77,32.419,32.419,0,0,1-9.49,2.67A17.014,17.014,0,0,0,2333.06,2027.24Z" transform="translate(-2228.94 -1994)"/>
</svg>
