<svg xmlns="http://www.w3.org/2000/svg" width="128.88" height="128" viewBox="0 0 128.88 128">
  <metadata><?xpacket begin="﻿" id="W5M0MpCehiHzreSzNTczkc9d"?>
<x:xmpmeta xmlns:x="adobe:ns:meta/" x:xmptk="Adobe XMP Core 5.6-c140 79.160451, 2017/05/06-01:08:21        ">
   <rdf:RDF xmlns:rdf="http://www.w3.org/1999/02/22-rdf-syntax-ns#">
      <rdf:Description rdf:about=""/>
   </rdf:RDF>
</x:xmpmeta>
                                                                                                    
                                                                                                    
                                                                                                    
                                                                                                    
                                                                                                    
                                                                                                    
                                                                                                    
                                                                                                    
                                                                                                    
                                                                                                    
                                                                                                    
                                                                                                    
                                                                                                    
                                                                                                    
                                                                                                    
                                                                                                    
                                                                                                    
                                                                                                    
                                                                                                    
                                                                                                    
                           
<?xpacket end="w"?></metadata>
<defs>
    <style>
      .cls-1 {
        fill: #fff;
        fill-rule: evenodd;
      }
    </style>
  </defs>
  <path id="icon-vkontakte-en" class="cls-1" d="M1727.62,1994H1856.5v128H1727.62V1994Zm109.05,87.54c-0.11-.25-0.22-0.46-0.31-0.62q-2.445-4.485-9.3-10.98l-0.09-.1-0.05-.05-0.05-.05h-0.05c-2.07-2.02-3.39-3.38-3.94-4.07a3.878,3.878,0,0,1-.68-4.02q0.585-1.545,4.38-6.51,2-2.625,3.16-4.22,8.415-11.415,7.3-14.6l-0.29-.5a2.864,2.864,0,0,0-1.51-.81,7.577,7.577,0,0,0-3.12-.13l-14,.1a1.833,1.833,0,0,0-.98.03c-0.42.1-.63,0.14-0.63,0.14l-0.24.13-0.2.15a2.117,2.117,0,0,0-.53.52,3.332,3.332,0,0,0-.49.87,82.083,82.083,0,0,1-5.2,11.17c-1.2,2.05-2.31,3.83-3.31,5.34a25.805,25.805,0,0,1-2.53,3.33,17.916,17.916,0,0,1-1.85,1.71,1.8,1.8,0,0,1-1.26.55c-0.3-.07-0.57-0.14-0.83-0.2a3.33,3.33,0,0,1-1.1-1.22,5.715,5.715,0,0,1-.56-1.94c-0.09-.77-0.15-1.44-0.17-2.01s-0.01-1.35.03-2.38,0.05-1.72.05-2.09c0-1.26.02-2.62,0.07-4.09s0.09-2.64.12-3.5,0.05-1.78.05-2.74a12,12,0,0,0-.17-2.26,7.468,7.468,0,0,0-.51-1.58,2.64,2.64,0,0,0-1-1.2,5.712,5.712,0,0,0-1.63-.67,32.065,32.065,0,0,0-6.57-.64q-9.045-.105-11.62,1.19a6.5,6.5,0,0,0-1.85,1.49c-0.58.73-.67,1.13-0.24,1.19a5.921,5.921,0,0,1,4.13,2.14l0.29,0.59a9.154,9.154,0,0,1,.68,2.29,22.553,22.553,0,0,1,.44,3.62,39.945,39.945,0,0,1,0,6.21c-0.16,1.72-.31,3.06-0.46,4.02a8.444,8.444,0,0,1-.66,2.34,9.569,9.569,0,0,1-.58,1.09,1.155,1.155,0,0,1-.24.25,3.716,3.716,0,0,1-1.32.24,3.068,3.068,0,0,1-1.65-.69,11.688,11.688,0,0,1-2.02-1.91,26.005,26.005,0,0,1-2.36-3.4c-0.88-1.46-1.78-3.18-2.72-5.17l-0.78-1.44c-0.49-.93-1.15-2.28-2-4.05s-1.59-3.48-2.23-5.14a3.325,3.325,0,0,0-1.17-1.59l-0.24-.15a3.8,3.8,0,0,0-.78-0.42,5.326,5.326,0,0,0-1.12-.32l-13.33.1a3.332,3.332,0,0,0-2.77.94l-0.2.3a1.617,1.617,0,0,0-.15.8,3.956,3.956,0,0,0,.3,1.34q2.91,6.99,6.34,13.5t5.96,10.48q2.535,3.975,5.16,7.5t3.48,4.52c0.57,0.66,1.01,1.16,1.34,1.49l1.21,1.19a29.531,29.531,0,0,0,3.43,2.86,57.235,57.235,0,0,0,5.01,3.27,26.925,26.925,0,0,0,6.4,2.64,21.97,21.97,0,0,0,7.1.82h5.6a3.86,3.86,0,0,0,2.58-1.1l0.19-.25a3.154,3.154,0,0,0,.36-0.91,4.945,4.945,0,0,0,.17-1.37,17.035,17.035,0,0,1,.32-3.85,10.122,10.122,0,0,1,.83-2.58,6.421,6.421,0,0,1,1.04-1.46,4.139,4.139,0,0,1,.83-0.72,2.988,2.988,0,0,1,.39-0.18,3.055,3.055,0,0,1,2.75.77,16.732,16.732,0,0,1,2.97,2.88q1.38,1.725,3.33,3.85a23.769,23.769,0,0,0,3.4,3.18l0.98,0.59a11.5,11.5,0,0,0,2.53,1.1,5.4,5.4,0,0,0,2.72.25l12.45-.2a5.585,5.585,0,0,0,2.87-.62,2.47,2.47,0,0,0,1.22-1.37,3.821,3.821,0,0,0,.02-1.69A5.449,5.449,0,0,0,1836.67,2081.54Z" transform="translate(-1727.62 -1994)"/>
</svg>
