<svg xmlns="http://www.w3.org/2000/svg" width="50" height="50" viewBox="0 0 50 50">
  <metadata><?xpacket begin="﻿" id="W5M0MpCehiHzreSzNTczkc9d"?>
<x:xmpmeta xmlns:x="adobe:ns:meta/" x:xmptk="Adobe XMP Core 5.6-c140 79.160451, 2017/05/06-01:08:21        ">
   <rdf:RDF xmlns:rdf="http://www.w3.org/1999/02/22-rdf-syntax-ns#">
      <rdf:Description rdf:about=""/>
   </rdf:RDF>
</x:xmpmeta>
                                                                                                    
                                                                                                    
                                                                                                    
                                                                                                    
                                                                                                    
                                                                                                    
                                                                                                    
                                                                                                    
                                                                                                    
                                                                                                    
                                                                                                    
                                                                                                    
                                                                                                    
                                                                                                    
                                                                                                    
                                                                                                    
                                                                                                    
                                                                                                    
                                                                                                    
                                                                                                    
                           
<?xpacket end="w"?></metadata>
<defs>
    <style>
      .cls-1 {
        fill: #fff;
        fill-rule: evenodd;
      }
    </style>
  </defs>
  <path id="Instagram" class="cls-1" d="M2081,800.5c6.68,0,7.47.026,10.1,0.146a13.773,13.773,0,0,1,4.64.861,8.266,8.266,0,0,1,4.75,4.745,13.857,13.857,0,0,1,.86,4.641c0.12,2.637.15,3.427,0.15,10.1s-0.03,7.466-.15,10.1a13.871,13.871,0,0,1-.86,4.642,8.266,8.266,0,0,1-4.75,4.745,13.825,13.825,0,0,1-4.64.861c-2.63.12-3.42,0.145-10.1,0.145s-7.47-.025-10.1-0.145a13.825,13.825,0,0,1-4.64-.861,8.266,8.266,0,0,1-4.75-4.745,13.871,13.871,0,0,1-.86-4.642c-0.12-2.636-.15-3.427-0.15-10.1s0.03-7.466.15-10.1a13.857,13.857,0,0,1,.86-4.641,8.266,8.266,0,0,1,4.75-4.745,13.773,13.773,0,0,1,4.64-.861c2.63-.12,3.42-0.146,10.1-0.146m0-4.5c-6.79,0-7.64.028-10.31,0.15a18.353,18.353,0,0,0-6.07,1.162,12.839,12.839,0,0,0-7.31,7.312,18.264,18.264,0,0,0-1.16,6.068c-0.12,2.667-.15,3.518-0.15,10.308s0.03,7.641.15,10.307a18.276,18.276,0,0,0,1.16,6.069,12.833,12.833,0,0,0,7.31,7.311,18.353,18.353,0,0,0,6.07,1.162c2.67,0.122,3.52.151,10.31,0.151s7.64-.029,10.31-0.151a18.353,18.353,0,0,0,6.07-1.162,12.833,12.833,0,0,0,7.31-7.311,18.276,18.276,0,0,0,1.16-6.069c0.12-2.666.15-3.518,0.15-10.307s-0.03-7.641-.15-10.308a18.264,18.264,0,0,0-1.16-6.068,12.839,12.839,0,0,0-7.31-7.312,18.353,18.353,0,0,0-6.07-1.162c-2.67-.122-3.52-0.15-10.31-0.15h0Zm0,12.162A12.838,12.838,0,1,0,2093.84,821,12.84,12.84,0,0,0,2081,808.162Zm0,21.171a8.334,8.334,0,1,1,8.33-8.333A8.332,8.332,0,0,1,2081,829.333Zm16.34-21.678a3,3,0,1,1-2.99-3A3,3,0,0,1,2097.34,807.655Z" transform="translate(-2056 -796)"/>
</svg>
