<svg xmlns="http://www.w3.org/2000/svg" width="50" height="42" viewBox="0 0 50 42">
  <metadata><?xpacket begin="﻿" id="W5M0MpCehiHzreSzNTczkc9d"?>
<x:xmpmeta xmlns:x="adobe:ns:meta/" x:xmptk="Adobe XMP Core 5.6-c140 79.160451, 2017/05/06-01:08:21        ">
   <rdf:RDF xmlns:rdf="http://www.w3.org/1999/02/22-rdf-syntax-ns#">
      <rdf:Description rdf:about=""/>
   </rdf:RDF>
</x:xmpmeta>
                                                                                                    
                                                                                                    
                                                                                                    
                                                                                                    
                                                                                                    
                                                                                                    
                                                                                                    
                                                                                                    
                                                                                                    
                                                                                                    
                                                                                                    
                                                                                                    
                                                                                                    
                                                                                                    
                                                                                                    
                                                                                                    
                                                                                                    
                                                                                                    
                                                                                                    
                                                                                                    
                           
<?xpacket end="w"?></metadata>
<defs>
    <style>
      .cls-1 {
        fill: #55acee;
        fill-rule: evenodd;
      }
    </style>
  </defs>
  <path id="Twitter" class="cls-1" d="M1154.62,800.776a20.182,20.182,0,0,1-6.52,2.574,10.061,10.061,0,0,0-7.48-3.35,10.435,10.435,0,0,0-10.26,10.6,11.275,11.275,0,0,0,.26,2.415,28.822,28.822,0,0,1-21.14-11.081,10.843,10.843,0,0,0-1.38,5.331,10.694,10.694,0,0,0,4.56,8.826,10.027,10.027,0,0,1-4.65-1.332V814.9a10.539,10.539,0,0,0,8.23,10.4,10.058,10.058,0,0,1-2.7.372,9.868,9.868,0,0,1-1.93-.192,10.314,10.314,0,0,0,9.57,7.367,20.127,20.127,0,0,1-12.73,4.537,21.017,21.017,0,0,1-2.45-.145A28.366,28.366,0,0,0,1121.72,842c18.87,0,29.19-16.161,29.19-30.175l-0.04-1.374a21,21,0,0,0,5.13-5.482,19.973,19.973,0,0,1-5.89,1.671A10.607,10.607,0,0,0,1154.62,800.776Z" transform="translate(-1106 -800)"/>
</svg>
