<svg xmlns="http://www.w3.org/2000/svg" width="50" height="42" viewBox="0 0 50 42">
  <metadata><?xpacket begin="﻿" id="W5M0MpCehiHzreSzNTczkc9d"?>
<x:xmpmeta xmlns:x="adobe:ns:meta/" x:xmptk="Adobe XMP Core 5.6-c140 79.160451, 2017/05/06-01:08:21        ">
   <rdf:RDF xmlns:rdf="http://www.w3.org/1999/02/22-rdf-syntax-ns#">
      <rdf:Description rdf:about=""/>
   </rdf:RDF>
</x:xmpmeta>
                                                                                                    
                                                                                                    
                                                                                                    
                                                                                                    
                                                                                                    
                                                                                                    
                                                                                                    
                                                                                                    
                                                                                                    
                                                                                                    
                                                                                                    
                                                                                                    
                                                                                                    
                                                                                                    
                                                                                                    
                                                                                                    
                                                                                                    
                                                                                                    
                                                                                                    
                                                                                                    
                           
<?xpacket end="w"?></metadata>
<defs>
    <style>
      .cls-1 {
        fill: #55acee;
        fill-rule: evenodd;
      }
    </style>
  </defs>
  <path id="Twitter" class="cls-1" d="M204.621,800.776a20.225,20.225,0,0,1-6.518,2.574,10.07,10.07,0,0,0-7.485-3.35,10.437,10.437,0,0,0-10.259,10.6,11.026,11.026,0,0,0,.266,2.415,28.818,28.818,0,0,1-21.142-11.081,10.815,10.815,0,0,0-1.387,5.331,10.7,10.7,0,0,0,4.562,8.826,9.984,9.984,0,0,1-4.646-1.332V814.9a10.536,10.536,0,0,0,8.227,10.4,9.922,9.922,0,0,1-4.634.18,10.325,10.325,0,0,0,9.58,7.367,20.16,20.16,0,0,1-12.738,4.537,21.035,21.035,0,0,1-2.448-.145A28.372,28.372,0,0,0,171.724,842c18.867,0,29.183-16.161,29.183-30.175l-0.033-1.374A21.022,21.022,0,0,0,206,804.969a20.01,20.01,0,0,1-5.889,1.671A10.611,10.611,0,0,0,204.621,800.776Z" transform="translate(-156 -800)"/>
</svg>
